<?xml version="1.0" standalone="no"?>
<!DOCTYPE svg PUBLIC "-//W3C//DTD SVG 20010904//EN"
 "http://www.w3.org/TR/2001/REC-SVG-20010904/DTD/svg10.dtd">
<svg version="1.0" xmlns="http://www.w3.org/2000/svg"
 width="750.000000pt" height="750.000000pt" viewBox="0 0 750.000000 750.000000"
 preserveAspectRatio="xMidYMid meet">
<metadata>
Created by potrace 1.16, written by Peter Selinger 2001-2019
</metadata>
<g transform="translate(0.000000,750.000000) scale(0.100000,-0.100000)"
fill="#000000" stroke="none">
<path d="M2901 7491 c-11 -7 -11 -9 0 -14 11 -4 12 -7 2 -18 -11 -11 -13 -11
-13 1 0 7 -3 10 -6 7 -4 -4 -2 -13 5 -20 8 -11 8 -22 -3 -47 -9 -22 -15 -28
-20 -19 -3 8 -3 4 -1 -8 3 -12 1 -24 -5 -28 -6 -3 -8 -10 -5 -15 3 -5 1 -11
-4 -14 -5 -4 -17 -29 -26 -56 -9 -28 -20 -50 -25 -50 -5 0 -14 -17 -21 -37 -6
-21 -22 -58 -34 -83 -70 -144 -67 -131 -59 -214 5 -51 3 -80 -4 -85 -12 -7
-15 -26 -12 -61 2 -24 3 -24 11 5 7 25 8 23 4 -14 -2 -25 3 -60 10 -78 13 -31
13 -34 -3 -40 -9 -3 -57 -21 -107 -40 -49 -19 -146 -50 -215 -69 -69 -19 -151
-42 -183 -51 -70 -20 -104 -43 -275 -191 -133 -116 -221 -215 -227 -255 -2
-12 -12 -46 -24 -75 -33 -87 -105 -416 -171 -782 -11 -58 -26 -143 -35 -190
-66 -358 -147 -1061 -170 -1480 -8 -151 -24 -392 -35 -535 -12 -160 -21 -367
-22 -540 -1 -245 2 -309 26 -509 14 -125 36 -274 48 -330 11 -55 20 -120 19
-143 -1 -23 7 -68 18 -100 10 -32 29 -105 41 -163 19 -88 27 -110 54 -138 45
-48 113 -88 174 -103 l53 -13 -6 -46 c-9 -65 -43 -214 -67 -289 -16 -50 -19
-80 -15 -136 3 -39 1 -92 -4 -118 -14 -77 -15 -259 -1 -284 12 -21 19 -23 111
-23 l98 0 -5 53 c-3 28 -9 53 -13 55 -5 2 -9 10 -9 18 0 9 -4 13 -9 9 -9 -5
-13 19 -27 146 -3 33 -1 36 21 36 14 0 28 -3 31 -8 3 -5 -1 -9 -10 -9 -12 0
-11 -7 6 -41 13 -27 18 -52 14 -71 -3 -16 -2 -27 3 -24 5 3 9 -10 9 -29 0 -20
4 -41 10 -48 5 -6 15 -29 21 -49 l13 -38 759 0 c417 0 759 4 759 8 0 24 117
133 221 207 149 106 151 107 202 103 l42 -3 12 -100 c7 -55 15 -126 19 -158
l5 -57 695 0 694 0 11 28 c6 15 8 45 5 67 -6 36 21 239 42 325 5 19 21 52 35
74 35 50 43 99 27 156 -7 26 -14 109 -15 195 -2 139 -5 161 -42 305 -22 85
-46 187 -52 225 -22 128 -28 159 -52 247 -19 73 -25 85 -37 76 -29 -25 -106
-132 -108 -152 -1 -12 -3 -24 -3 -28 -1 -5 -5 -8 -10 -8 -5 0 -14 27 -22 60
-7 33 -17 60 -21 60 -4 0 -8 5 -8 10 0 6 6 10 14 10 8 0 17 6 19 13 3 6 6 -6
6 -28 1 -22 6 -47 11 -55 8 -12 10 -10 8 10 -2 16 2 25 12 25 9 0 16 11 18 25
1 14 5 43 8 65 6 37 5 39 -10 24 -9 -8 -18 -29 -19 -46 -1 -17 -5 -29 -9 -26
-13 7 -9 42 7 67 14 20 13 26 -1 55 -9 18 -14 34 -11 37 2 3 9 -9 15 -25 12
-34 27 -43 17 -11 -4 11 -8 42 -9 68 -2 26 -1 41 1 35 3 -8 14 -2 29 16 32 38
31 50 -1 14 -13 -15 -25 -23 -25 -17 0 6 7 17 15 24 22 18 18 40 -6 40 -11 0
-18 -4 -15 -9 6 -10 -22 -25 -40 -22 -13 1 -35 -23 -33 -35 8 -46 -11 -117
-28 -101 -4 4 -2 17 5 27 7 12 8 20 2 20 -5 0 -7 7 -4 15 7 16 -4 19 -22 7
-15 -10 -17 -82 -1 -82 8 0 7 -4 -3 -10 -26 -17 -29 -11 -23 41 5 47 4 51 -13
47 -10 -2 -18 -10 -17 -16 2 -7 -1 -12 -6 -12 -4 0 -11 -16 -14 -36 -9 -54
-27 -89 -54 -101 -13 -6 -23 -7 -23 -2 0 5 7 12 15 15 13 5 13 9 3 22 -10 12
-10 14 0 8 6 -4 12 -2 12 3 0 6 -5 11 -12 11 -6 0 -9 3 -5 6 11 12 -18 30 -50
32 -31 2 -33 1 -33 -32 0 -19 -5 -38 -10 -41 -6 -4 -4 -13 6 -22 13 -13 20
-14 34 -5 22 13 34 4 17 -12 -15 -16 -74 -36 -101 -36 -20 1 -20 1 -3 15 12 9
19 28 20 53 1 22 5 38 8 36 6 -3 19 19 19 32 0 2 -26 4 -57 5 -73 0 -45 13 49
23 69 7 131 27 160 53 18 16 104 65 156 89 43 19 41 28 -3 10 -31 -13 -35 -13
-35 0 0 8 5 12 11 9 6 -4 0 9 -13 28 -12 20 -25 34 -27 32 -2 -3 1 -10 6 -17
6 -7 10 -27 10 -44 0 -26 -6 -35 -34 -48 -19 -9 -40 -16 -48 -16 -7 0 -17 -9
-20 -21 -8 -23 -47 -41 -70 -33 -17 7 -20 24 -4 24 8 0 7 5 -1 15 -18 22 -31
-1 -19 -33 9 -23 8 -24 -19 -19 -17 3 -34 1 -42 -6 -9 -10 -11 -1 -5 43 4 30
11 71 15 90 5 19 12 50 15 69 6 33 22 71 30 71 5 0 -2 -52 -11 -90 -3 -14 -7
-36 -8 -50 -1 -14 -4 -30 -7 -35 -3 -6 -4 -16 -3 -22 1 -7 2 -21 3 -30 2 -17
2 -17 12 0 6 10 8 24 5 32 -7 20 17 25 31 6 10 -14 13 -12 22 12 15 40 14 57
-5 57 -11 0 -14 -5 -10 -16 5 -13 4 -14 -7 -6 -8 7 -12 24 -9 43 3 21 7 27 13
18 4 -7 6 -16 4 -19 -2 -4 3 -7 11 -7 8 0 13 6 10 14 -3 7 -1 13 4 13 4 0 11
13 15 30 4 16 11 32 16 35 5 4 5 -3 0 -18 -5 -13 -12 -50 -16 -83 -4 -32 -11
-74 -15 -92 -6 -22 -5 -32 1 -30 6 2 10 8 10 13 0 6 7 14 15 18 8 5 11 13 8
19 -4 7 -2 8 4 4 7 -4 12 -2 12 3 0 12 21 11 30 -1 3 -3 14 0 25 9 20 15 20
15 0 11 -16 -2 -21 3 -23 27 -2 22 0 26 7 15 5 -8 7 -18 4 -23 -3 -5 0 -7 8
-5 8 3 13 10 12 16 -2 7 5 9 15 5 14 -5 15 -3 5 8 -18 18 -16 39 4 61 15 17
15 21 3 29 -10 7 -11 12 -4 15 7 3 10 13 7 23 -3 11 2 52 11 92 9 41 21 112
26 159 13 108 17 142 28 211 5 31 7 68 5 83 -2 14 1 26 7 26 5 0 13 0 17 0 4
0 8 -6 9 -15 1 -8 -3 -15 -9 -15 -7 0 -6 -5 3 -11 11 -8 12 -12 3 -16 -9 -3
-10 -10 -3 -24 8 -13 7 -19 0 -19 -7 0 -9 -8 -5 -21 4 -13 2 -25 -5 -29 -7 -4
-13 -30 -14 -58 0 -27 -4 -48 -8 -45 -5 2 -8 -5 -8 -16 0 -10 -3 -26 -6 -35
-4 -11 0 -16 12 -16 13 0 15 -3 7 -8 -8 -5 -9 -13 -3 -22 15 -24 11 -36 -5
-14 -14 19 -14 18 -15 -3 0 -13 5 -23 11 -23 6 0 9 -7 5 -15 -3 -8 -2 -15 3
-15 5 0 7 -13 5 -29 -2 -20 2 -31 12 -35 9 -4 14 -13 10 -21 -3 -9 0 -15 9
-15 8 0 15 -7 15 -15 0 -8 -7 -15 -16 -15 -8 0 -12 4 -9 10 3 5 2 10 -3 10 -5
0 -14 11 -20 25 -16 36 -33 32 -22 -5 5 -18 5 -30 -1 -30 -5 0 -10 10 -10 23
-1 17 -3 15 -8 -8 -4 -16 -3 -31 1 -33 4 -2 8 -8 8 -13 0 -6 -4 -7 -10 -4 -6
3 -10 -4 -9 -17 0 -13 3 -17 6 -10 2 6 11 12 19 12 8 0 14 9 14 19 0 11 5 23
12 27 6 4 8 3 5 -2 -3 -6 -2 -16 4 -24 6 -10 9 -11 9 -2 0 6 5 12 10 12 6 0
10 -7 10 -15 0 -8 -6 -15 -12 -15 -16 0 -62 -95 -53 -110 12 -19 22 -10 17 16
-4 20 -2 25 8 19 9 -5 10 -2 6 13 -6 17 -3 19 14 15 20 -5 25 4 21 36 -2 7 2
10 8 6 6 -3 11 -14 11 -23 0 -15 2 -15 10 -2 12 19 13 33 1 25 -20 -12 -22 17
-3 31 13 9 19 22 17 34 -2 12 2 20 10 20 7 0 17 10 20 23 13 41 47 90 55 77 4
-7 -3 -23 -16 -38 -23 -24 -24 -26 -7 -45 17 -19 17 -20 0 -14 -13 5 -23 -2
-37 -25 -24 -40 -17 -50 11 -15 11 15 27 27 35 27 45 0 159 100 149 131 -4 13
4 18 42 22 27 4 61 9 77 13 19 5 27 3 22 -4 -3 -6 -19 -13 -35 -17 -31 -7 -58
-31 -47 -42 3 -3 17 -1 30 7 18 9 45 11 100 5 68 -6 78 -5 102 14 18 14 41 21
73 21 52 0 91 21 91 50 0 11 33 52 73 92 41 40 76 80 80 88 4 12 7 13 15 1 6
-9 12 -10 16 -3 4 6 13 9 21 5 8 -3 15 0 15 7 0 8 -9 10 -25 6 -14 -4 -25 -2
-25 4 0 5 11 12 24 16 14 3 26 12 28 19 4 15 177 165 191 165 6 0 2 -10 -9
-22 -19 -22 -19 -22 14 1 34 24 41 34 17 25 -32 -13 -12 7 58 55 48 33 82 66
101 98 38 62 36 60 45 44 7 -10 10 -9 14 3 4 10 1 16 -8 16 -17 0 -19 18 -6
38 6 10 10 8 14 -8 4 -15 11 -21 21 -17 10 4 13 1 9 -9 -10 -26 4 -15 29 24
29 46 30 67 1 67 -11 0 -25 3 -29 8 -14 14 -24 7 -24 -18 0 -14 -4 -25 -10
-25 -5 0 -10 22 -10 48 0 42 -22 146 -45 217 -4 14 -2 12 9 -5 8 -14 15 -19
16 -12 0 7 5 10 10 7 6 -3 10 3 10 15 0 13 4 19 11 14 6 -3 16 0 21 7 7 10 7
7 3 -8 -5 -17 -3 -22 8 -17 12 4 12 14 0 67 -8 34 -20 83 -28 109 -7 25 -11
49 -8 52 4 3 1 6 -5 6 -6 0 -9 11 -6 28 3 20 2 23 -6 12 -8 -12 -10 -11 -11 8
-2 31 -3 35 -12 50 -5 6 -6 16 -2 21 3 5 1 12 -5 16 -6 4 -8 11 -5 16 4 5 2 9
-4 9 -6 0 -7 7 -4 17 5 12 3 14 -7 8 -9 -5 -11 -4 -6 4 4 6 2 19 -6 28 -7 9
-12 18 -10 20 1 2 -5 17 -14 34 -12 25 -20 30 -39 25 -16 -4 -25 -1 -29 10 -8
21 4 40 14 23 5 -7 16 -14 25 -15 12 -2 14 3 9 19 -17 54 -25 68 -35 61 -8 -4
-9 1 -4 16 5 14 3 20 -3 16 -14 -8 -2 36 12 47 7 6 4 7 -6 3 -10 -3 -18 -1
-18 4 0 5 -7 7 -15 4 -8 -4 -15 -1 -15 6 0 6 5 8 10 5 15 -9 12 7 -5 31 -8 12
-17 37 -20 55 -5 31 -5 32 8 14 8 -11 20 -36 27 -56 7 -21 26 -44 42 -53 15
-10 28 -23 28 -29 0 -7 -4 -6 -10 3 -17 28 -23 1 -6 -34 9 -19 16 -39 16 -45
0 -6 5 -11 11 -11 5 0 8 -4 5 -9 -3 -5 1 -14 9 -21 8 -7 15 -19 15 -26 0 -8 4
-14 9 -14 5 0 7 -8 4 -19 -3 -10 3 -33 11 -50 9 -17 16 -32 15 -33 -4 -8 35
-128 42 -128 5 0 6 -6 3 -13 -3 -8 1 -27 7 -43 7 -16 12 -44 11 -61 0 -18 3
-33 8 -33 4 0 7 -11 5 -25 -1 -14 3 -25 10 -25 6 0 12 -6 12 -13 0 -7 12 -36
26 -66 15 -29 27 -59 27 -67 0 -9 4 -13 9 -10 10 7 33 -52 26 -64 -3 -5 -1
-11 4 -14 5 -3 8 17 8 44 0 28 -4 45 -8 39 -4 -8 -11 -4 -18 9 -9 17 -9 21 1
18 7 -1 10 -1 6 1 -5 3 -8 13 -8 23 0 9 -7 23 -15 30 -8 7 -15 20 -15 29 0 14
-2 14 -10 1 -6 -9 -10 -10 -10 -3 0 6 -3 19 -7 29 -4 12 -3 15 5 10 21 -12 13
4 -14 31 -16 16 -24 33 -21 44 3 11 1 19 -4 19 -4 0 -6 7 -3 15 8 20 24 9 25
-18 1 -13 4 -8 8 13 5 22 3 41 -5 50 -6 8 -14 22 -17 30 -4 10 -6 11 -6 2 -1
-7 -5 -11 -11 -7 -5 3 -6 13 -3 22 4 9 -1 21 -12 29 -10 8 -15 14 -9 14 5 0 3
4 -5 9 -12 8 -12 12 -2 25 8 9 9 16 4 16 -5 0 -8 14 -5 30 3 22 -1 36 -17 49
-11 10 -18 21 -14 25 4 3 17 -3 29 -15 12 -11 25 -16 28 -11 3 6 -1 12 -9 16
-21 8 -19 29 3 22 15 -5 15 -5 1 6 -20 17 -58 75 -41 65 17 -11 16 -6 -15 49
-16 29 -21 44 -11 36 13 -10 16 -9 21 9 4 16 2 19 -11 14 -13 -5 -12 -1 4 16
l19 22 -25 -13 c-25 -13 -25 -13 -6 8 18 20 18 22 -4 52 -12 17 -25 28 -29 24
-3 -4 0 -9 7 -11 6 -3 12 -12 12 -21 0 -13 -3 -12 -15 5 -15 21 -11 53 6 53 5
0 6 12 3 26 -5 19 -4 25 5 20 6 -4 11 -2 11 3 0 6 -7 11 -15 11 -9 0 -12 6 -8
17 4 10 2 14 -4 10 -6 -4 -13 0 -16 8 -4 9 -1 12 9 8 9 -3 14 2 14 17 0 16 -4
20 -15 16 -46 -18 -49 -18 -26 1 23 19 23 21 10 71 -9 38 -18 52 -30 52 -10 0
-21 5 -25 11 -4 8 0 9 15 4 25 -8 25 -7 6 39 -10 23 -20 34 -28 31 -7 -4 -5
-1 3 7 9 7 14 21 12 31 -2 9 1 17 7 17 16 0 14 16 -4 34 -8 8 -13 20 -10 28 8
22 -11 73 -27 72 -8 -1 -15 5 -15 12 0 7 3 11 7 9 16 -10 -1 78 -20 102 -11
14 -17 29 -14 34 3 5 0 9 -6 9 -6 0 -8 4 -5 10 3 5 -1 22 -9 38 -8 16 -12 39
-9 52 4 14 2 21 -4 17 -6 -4 -9 7 -8 26 3 39 -4 67 -17 67 -5 0 -6 -4 -3 -10
4 -6 -1 -7 -11 -3 -14 5 -14 7 -1 14 12 7 13 14 4 33 -7 13 -16 22 -22 18 -5
-3 -5 1 2 9 7 9 8 20 3 29 -5 8 -6 18 -3 24 3 5 1 6 -5 2 -10 -6 -17 7 -9 17
1 2 -4 11 -11 20 -8 9 -11 25 -7 37 8 24 -13 93 -26 85 -5 -4 -6 0 -4 7 3 8
-6 25 -19 37 -14 13 -23 28 -20 33 10 16 -19 66 -35 61 -10 -3 -12 -2 -5 4 12
9 13 52 0 72 -5 8 -4 16 5 22 11 7 10 9 -4 9 -14 0 -16 5 -11 26 5 18 3 25 -4
20 -6 -4 -8 2 -4 16 4 16 2 19 -8 13 -8 -5 -11 -4 -7 2 8 12 -24 113 -35 113
-5 0 -7 4 -3 9 7 12 -23 91 -42 111 -13 13 -14 12 -9 -10 10 -45 19 -272 18
-453 -1 -99 3 -187 8 -197 5 -9 7 -20 3 -23 -8 -9 -9 -97 -1 -97 4 0 5 -6 2
-13 -3 -8 0 -25 5 -39 8 -21 7 -28 -6 -32 -19 -8 -18 -8 -28 23 -6 18 -4 22 6
15 10 -6 10 -3 -1 11 -8 10 -10 16 -3 12 8 -5 8 1 -2 20 -11 21 -12 29 -2 35
9 6 8 8 -3 8 -13 0 -13 1 0 10 13 9 13 10 0 11 -8 1 -18 1 -21 1 -3 -1 -6 6
-6 14 0 8 6 13 13 10 22 -8 21 28 -1 48 -16 16 -17 18 -2 13 19 -7 24 9 5 16
-9 4 -9 6 -1 6 7 1 10 14 7 37 -2 20 1 43 7 50 8 10 8 14 0 14 -6 0 -11 5 -11
11 0 5 5 7 10 4 6 -3 10 -1 10 4 0 6 -6 11 -12 11 -9 0 -8 4 2 10 13 8 13 10
1 10 -12 0 -12 3 -3 12 7 7 12 26 12 42 0 24 -3 27 -10 16 -6 -9 -10 -10 -10
-3 0 6 5 15 10 18 6 3 10 21 10 40 0 19 -4 37 -10 40 -5 3 -10 12 -10 18 0 7
4 6 10 -3 9 -13 10 -13 9 0 0 8 -6 30 -13 48 -8 25 -9 50 -2 93 8 51 7 68 -12
121 -16 49 -18 66 -9 78 6 8 -4 2 -23 -15 -19 -16 -36 -33 -38 -37 -2 -5 -8
-8 -13 -8 -5 0 7 24 28 53 20 28 30 47 22 40 -11 -9 -22 -8 -46 2 -18 8 -33
17 -33 20 0 3 5 3 10 0 6 -3 18 1 27 11 16 16 16 16 -2 11 -11 -3 -33 0 -49 6
-25 11 -27 14 -14 27 25 26 28 48 8 72 -19 23 -19 23 -34 3 -10 -14 -11 -24
-4 -32 6 -7 7 -21 3 -30 -6 -17 -7 -17 -16 0 -6 9 -7 22 -4 27 3 6 1 10 -4 10
-6 0 -11 5 -11 11 0 5 4 8 9 5 4 -3 1 10 -8 29 -9 19 -18 34 -21 35 -16 1 -29
-47 -30 -111 -2 -99 -9 -141 -24 -132 -7 4 -6 1 1 -9 7 -8 10 -17 7 -20 -2 -3
-7 -18 -10 -34 -11 -74 -14 -78 -32 -61 -25 22 -73 40 -104 38 -22 -1 -28 3
-28 19 0 11 5 20 10 20 6 0 10 -7 10 -15 0 -22 16 -18 17 5 1 11 -1 19 -5 19
-20 -3 -32 2 -27 11 4 6 10 8 15 5 5 -3 14 5 21 17 11 21 11 22 -5 9 -9 -8
-19 -11 -23 -7 -3 3 -1 6 6 6 7 0 9 5 6 10 -8 12 54 13 74 1 7 -5 14 -21 14
-35 0 -30 14 -43 30 -27 8 8 8 11 -1 11 -7 0 -10 9 -8 23 3 12 5 32 5 45 1 13
7 22 16 22 8 0 15 5 15 10 0 6 -9 10 -20 10 l-21 0 21 22 c20 22 28 44 11 33
-6 -3 -8 4 -6 16 3 13 1 27 -4 33 -11 14 -10 46 1 46 4 0 8 9 8 20 0 17 -3 18
-26 10 -32 -13 -37 -12 -29 1 4 6 17 14 29 19 17 7 13 9 -21 9 -24 1 -43 -3
-43 -7 0 -8 -59 -33 -76 -31 -5 0 4 6 19 13 25 11 26 14 13 25 -11 9 -16 10
-16 2 0 -6 -5 -11 -11 -11 -6 0 -9 6 -6 14 6 15 -24 17 -34 2 -9 -12 -85 -24
-100 -16 -21 11 -86 23 -72 13 8 -6 9 -14 3 -23 -7 -12 -12 -12 -22 -2 -6 6
-20 12 -29 12 -10 0 -21 5 -25 12 -5 7 -2 8 7 3 8 -5 3 5 -11 21 -14 15 -17
22 -7 15 9 -7 17 -10 17 -6 0 4 11 0 24 -8 23 -16 24 -15 21 9 -1 13 -10 33
-19 43 -9 9 -16 21 -16 26 0 5 -10 19 -22 32 -12 13 -16 23 -10 23 6 0 14 -4
17 -10 8 -13 25 -13 25 1 0 5 -6 7 -12 3 -9 -6 -9 -3 1 9 9 11 14 55 17 133 2
64 6 119 8 123 3 4 1 24 -4 44 -5 22 -4 39 1 43 6 3 7 15 3 27 -9 30 -14 34
-24 18 -6 -10 -13 1 -26 37 -10 29 -22 52 -26 52 -5 0 -8 4 -8 10 0 5 -13 31
-30 57 -31 48 -41 84 -15 49 8 -11 15 -15 15 -9 0 7 -4 15 -10 18 -5 3 -10 13
-10 21 0 9 5 12 12 8 7 -4 8 -3 4 5 -4 6 -12 8 -18 5 -6 -4 -8 -2 -4 4 6 11
-31 92 -43 92 -3 0 -14 20 -24 45 -11 25 -23 45 -27 45 -4 0 -10 8 -13 18 -4
9 -27 53 -51 97 -25 44 -53 94 -61 110 l-16 30 19 -24 19 -23 -5 33 c-2 19 -1
31 3 27 4 -4 9 -19 10 -33 4 -34 61 -155 74 -155 5 0 13 -9 16 -21 4 -11 9
-19 11 -16 8 8 -33 87 -41 79 -5 -4 -5 -2 -1 5 4 7 -2 32 -13 55 -10 24 -26
61 -35 82 -16 38 -17 39 -32 20 -14 -16 -15 -17 -10 -1 5 16 -44 17 -937 17
-518 0 -948 -4 -956 -9z m1906 -272 c4 0 7 -7 5 -16 -2 -8 1 -12 7 -9 6 4 22
-16 36 -44 23 -46 45 -70 31 -34 -3 8 -2 12 4 9 5 -3 8 -16 6 -28 -2 -12 3
-38 11 -56 19 -49 3 -29 -28 32 -23 47 -59 76 -59 47 0 -6 4 -9 8 -6 9 5 56
-69 50 -78 -2 -3 5 -15 15 -26 14 -17 16 -28 9 -54 -7 -23 -5 -40 5 -59 9 -19
10 -27 2 -27 -6 0 -8 -7 -5 -16 3 -9 2 -12 -4 -9 -6 4 -10 12 -9 18 3 22 -13
77 -21 72 -10 -6 -22 24 -15 35 3 5 12 7 20 4 9 -4 1 15 -18 43 -35 55 -48 62
-23 14 20 -38 20 -37 -4 -37 -14 0 -18 5 -14 18 3 10 -3 24 -15 35 -12 10 -21
22 -21 28 -1 5 -14 26 -30 45 -17 19 -30 39 -30 44 0 6 14 -9 31 -32 32 -44
42 -52 33 -27 -4 8 1 17 9 21 9 3 13 12 10 21 -4 11 -2 14 5 9 15 -9 -2 33
-31 79 l-19 30 21 -23 c11 -13 24 -23 28 -23z m88 -873 c6 3 17 -2 24 -10 7
-8 20 -12 29 -9 13 4 14 2 4 -5 -10 -7 -4 -17 25 -41 21 -18 49 -42 62 -54 14
-12 21 -15 16 -7 -4 8 2 5 14 -7 12 -13 30 -23 41 -23 10 0 21 -4 25 -10 3 -5
12 -7 19 -4 8 3 17 1 21 -5 3 -6 15 -11 26 -11 11 0 18 -4 14 -10 -3 -5 7 -8
25 -5 22 3 30 -1 30 -12 0 -12 3 -13 13 -4 16 13 27 5 27 -21 0 -10 -7 -18
-15 -18 -22 0 -18 -17 7 -34 12 -9 18 -16 12 -16 -6 0 -23 11 -37 24 -23 21
-26 22 -30 6 -5 -20 10 -40 30 -40 7 0 13 -4 13 -10 0 -5 -4 -10 -9 -10 -6 0
-13 5 -16 10 -3 6 -11 10 -16 10 -17 0 35 -61 56 -66 12 -3 22 -12 22 -20 0
-17 -9 -18 -25 -2 -10 10 -17 10 -33 0 -12 -8 -18 -9 -14 -3 3 6 -1 11 -9 11
-9 0 -16 5 -16 11 0 5 4 7 10 4 6 -3 7 1 4 9 -7 19 -20 21 -30 4 -4 -7 -3 -8
4 -4 8 5 10 1 5 -9 -4 -13 -8 -14 -13 -4 -5 7 -6 18 -3 26 3 7 -2 16 -11 19
-9 3 -15 12 -14 18 2 6 -8 25 -21 41 -13 17 -21 22 -18 13 3 -10 1 -20 -5 -24
-12 -8 -30 16 -23 33 2 7 1 12 -3 12 -21 -3 -32 3 -32 19 0 14 -2 14 -9 3 -7
-11 -10 -8 -13 13 -2 14 -7 27 -13 27 -28 2 -45 22 -46 52 0 29 -1 30 -9 10
-5 -13 -12 -23 -15 -23 -4 0 -5 10 -4 23 1 12 -3 33 -10 47 -11 24 -11 24 -8
-8 2 -18 0 -35 -5 -38 -4 -3 -8 12 -8 34 0 30 -6 44 -27 63 -16 13 -22 17 -15
9 21 -25 13 -34 -11 -12 -19 18 -26 19 -36 9 -11 -9 -11 -7 0 10 8 13 17 19
22 14 5 -5 15 -7 22 -5z m-735 -791 c7 -8 17 -12 22 -9 6 4 8 -1 4 -14 -4 -11
-2 -23 3 -26 6 -4 7 -14 4 -23 -4 -10 -2 -14 5 -9 6 3 13 2 17 -4 4 -6 11 -8
16 -5 5 4 9 1 9 -4 0 -6 -7 -11 -15 -11 -17 0 -18 -2 -9 -24 3 -9 12 -16 18
-16 7 0 13 -7 13 -15 0 -23 -12 -18 -27 11 l-14 25 -13 -26 c-14 -25 -9 -50 7
-40 5 3 12 0 16 -6 4 -8 9 -7 15 2 4 7 12 10 16 5 4 -5 2 -11 -4 -13 -7 -3
-13 -11 -13 -18 0 -8 -5 -17 -11 -21 -8 -4 -9 0 -4 15 5 17 2 21 -15 21 -16 0
-20 -4 -16 -18 4 -12 1 -19 -8 -19 -11 0 -12 6 -5 24 12 33 12 33 -11 33 -16
0 -19 -4 -12 -17 5 -10 7 -23 5 -30 -2 -6 3 -25 12 -42 8 -17 13 -31 9 -31 -4
0 -1 -7 6 -15 18 -21 9 -26 -15 -9 -17 13 -18 16 -5 25 11 7 8 8 -12 5 -25 -4
-26 -3 -17 21 11 30 -5 58 -20 34 -6 -9 -11 -10 -15 -2 -4 6 -2 11 4 11 6 0 8
5 5 10 -4 6 -11 7 -17 4 -7 -4 -8 -2 -4 5 6 9 11 9 21 1 22 -18 36 -3 25 26
-13 33 -13 54 0 34 9 -13 10 -13 10 0 0 9 -6 24 -14 35 -18 28 -9 85 15 85 8
0 7 -5 -2 -17 -12 -14 -12 -16 1 -11 11 4 16 -1 18 -18 1 -13 -3 -24 -10 -24
-6 0 -8 -3 -5 -6 4 -4 13 -1 21 5 10 8 16 9 21 1 3 -5 2 -10 -2 -10 -5 0 -9
-12 -10 -27 -2 -27 -2 -27 17 7 21 38 25 54 11 46 -10 -7 -37 22 -28 30 7 8
-17 34 -31 34 -12 0 -23 26 -15 34 10 10 20 7 33 -9z m-519 -585 c5 0 9 -5 9
-11 0 -8 -6 -7 -17 2 -15 13 -15 12 -3 -11 8 -14 15 -29 16 -35 4 -21 31 -64
37 -59 3 3 8 -3 11 -14 4 -12 18 -21 35 -24 23 -3 28 -1 24 11 -4 14 -3 14 5
1 6 -8 9 -17 7 -21 -3 -3 7 -11 21 -18 14 -6 22 -15 19 -21 -3 -5 -15 0 -26
11 -19 19 -22 20 -39 4 -14 -12 -20 -13 -26 -4 -5 8 -3 10 6 4 8 -5 11 -4 6 3
-11 19 -36 1 -36 -27 l-1 -26 -14 30 -13 30 -1 -26 c-1 -23 12 -39 29 -35 3 0
23 -10 45 -24 22 -13 35 -17 28 -9 -18 22 -6 58 18 52 10 -3 20 -13 20 -22 4
-46 3 -67 -4 -78 -5 -7 -6 -21 -2 -32 7 -22 -12 -38 -27 -23 -8 8 -15 7 -24
-3 -17 -16 -18 -35 -3 -35 5 0 7 5 4 10 -3 6 0 10 7 10 8 0 18 -19 24 -45 8
-35 8 -42 -2 -34 -7 6 -19 7 -25 3 -9 -5 -10 -2 -6 9 8 20 -13 23 -32 5 -9 -8
-12 -9 -7 -1 4 8 0 8 -19 0 -14 -7 -25 -18 -25 -25 0 -7 -4 -10 -10 -7 -5 3
-10 1 -10 -5 0 -8 10 -10 28 -6 18 5 22 4 13 -3 -9 -6 -11 -15 -6 -27 4 -11 9
-26 9 -34 1 -21 83 -20 102 2 10 11 12 18 5 23 -14 8 -14 35 -1 35 6 0 10 -6
10 -14 0 -7 7 -19 15 -26 8 -7 15 -17 15 -23 0 -6 -3 -8 -6 -4 -11 11 -34 -21
-28 -40 4 -13 3 -14 -4 -5 -7 11 -10 10 -16 -3 -3 -10 -12 -15 -21 -11 -8 3
-15 1 -15 -4 0 -6 -4 -10 -10 -10 -5 0 -7 8 -4 18 4 13 2 12 -8 -3 -16 -25
-51 -25 -78 0 -10 9 -24 14 -30 10 -9 -6 -9 -2 -1 13 7 14 17 18 31 15 16 -4
20 0 20 20 0 14 -3 27 -7 29 -5 2 -16 16 -25 33 -9 16 -22 31 -29 34 -6 2 -9
-1 -6 -6 3 -5 0 -10 -8 -10 -8 0 -12 4 -10 8 3 3 -6 9 -20 11 -13 3 -26 0 -28
-5 -2 -6 -9 -7 -16 -3 -9 6 -5 12 15 22 22 12 30 12 42 2 13 -11 14 -11 8 1
-6 9 0 8 17 -4 29 -19 47 -13 47 16 0 10 4 19 10 19 5 0 7 -8 4 -17 -5 -15 -4
-16 5 -3 17 24 13 29 -24 28 -27 -1 -34 -5 -30 -16 4 -12 1 -12 -19 2 -14 9
-34 16 -44 16 -10 0 -24 6 -31 13 -11 10 -13 8 -8 -10 3 -15 1 -20 -9 -16 -8
3 -14 9 -14 14 0 5 -4 9 -9 9 -5 0 -7 -8 -5 -17 4 -14 -2 -18 -25 -19 -17 -1
-28 2 -26 7 3 4 1 10 -5 14 -5 3 -10 1 -10 -5 0 -6 -7 -18 -15 -26 -8 -9 -15
-11 -15 -5 0 5 5 13 11 17 6 3 8 18 5 33 -5 19 -4 22 4 11 8 -12 10 -12 10 6
0 11 5 25 11 31 13 13 -7 13 -28 0 -9 -6 -13 -2 -13 12 0 12 6 18 17 17 9 -2
27 8 40 22 27 30 27 27 7 46 -8 9 -17 25 -19 36 -2 11 -6 24 -9 29 -3 4 3 16
13 25 16 15 20 15 33 2 8 -8 26 -16 39 -18 14 -2 24 -10 24 -20 0 -24 15 -35
16 -12 1 10 1 22 0 26 0 4 6 5 14 2 8 -4 15 -16 16 -28 0 -20 1 -20 8 -1 5 11
14 20 21 20 21 0 19 43 -2 48 -10 3 -18 10 -18 15 0 6 9 8 20 5 12 -3 20 0 20
7 0 9 4 9 18 -1 15 -13 16 -12 4 3 -8 9 -19 15 -26 12 -8 -3 -20 2 -29 10 -8
8 -16 13 -19 11 -2 -2 -4 5 -4 16 0 17 2 17 21 -5 15 -17 26 -22 35 -16 8 5
19 6 25 3 5 -4 1 3 -9 15 -14 17 -16 22 -5 22 10 1 9 4 -4 11 -9 6 -15 14 -12
20 4 5 -1 12 -9 15 -12 4 -12 9 -3 18 9 11 14 10 25 -1 7 -7 18 -13 23 -13z
m2287 -23 c6 -23 8 -53 5 -66 -4 -17 -3 -22 5 -17 8 5 12 -2 11 -21 -1 -17 -3
-21 -6 -10 -2 9 -9 15 -14 11 -5 -3 -9 -2 -8 3 1 4 1 19 0 33 -1 18 -4 21 -12
13 -9 -9 -7 -21 8 -50 10 -21 27 -66 38 -100 12 -43 23 -63 34 -63 12 0 13 -2
4 -8 -15 -9 11 -113 42 -173 10 -19 19 -45 21 -59 1 -17 -5 -10 -20 23 l-22
49 -13 -28 c-10 -22 -14 -25 -22 -13 -5 7 -9 22 -9 32 0 9 -5 17 -11 17 -5 0
-7 5 -4 10 10 17 25 11 25 -9 0 -11 4 -22 9 -25 10 -7 23 19 13 28 -3 4 -7 17
-9 29 -2 12 -8 24 -13 25 -6 2 -7 8 -4 13 9 16 -5 61 -17 53 -8 -4 -9 1 -4 16
6 20 5 21 -14 10 -12 -6 -26 -8 -31 -5 -17 11 -11 22 11 21 12 -1 24 5 27 13
3 9 0 11 -8 6 -10 -6 -12 -2 -8 13 4 14 2 20 -5 15 -6 -4 -8 0 -4 10 3 9 3 16
-1 16 -20 -3 -25 2 -12 12 11 7 12 12 3 15 -7 3 -9 13 -6 21 5 12 2 15 -10 10
-9 -3 -17 -2 -17 3 0 6 3 10 8 10 4 0 7 18 7 39 0 34 -2 38 -15 28 -13 -9 -13
-9 -2 3 7 8 17 16 23 16 5 1 12 2 15 3 3 0 -4 13 -15 27 -16 20 -18 30 -10 40
16 20 25 10 37 -39z m-1968 -247 c-12 -7 -12 -12 -2 -22 10 -10 15 -10 22 2 7
11 10 11 10 2 0 -7 4 -11 9 -7 6 3 14 -3 20 -12 6 -10 11 -13 11 -7 0 5 -6 16
-12 22 -10 10 -10 15 2 22 17 11 27 3 32 -25 3 -19 4 -18 24 3 l21 23 1 -45
c1 -26 -3 -46 -9 -46 -5 0 -7 11 -5 24 4 20 1 23 -17 18 -21 -5 -46 -29 -47
-44 0 -4 7 -5 15 -2 10 4 15 0 15 -16 0 -11 5 -18 10 -15 6 3 10 -3 10 -14 0
-22 16 -27 40 -11 13 9 13 10 0 11 -8 1 -18 1 -22 0 -4 0 -5 6 -1 15 4 12 8
12 13 4 4 -7 13 -9 19 -6 6 4 11 0 11 -9 0 -13 4 -14 20 -5 20 10 18 38 -4 52
-14 9 -1 22 13 13 6 -3 11 -15 11 -26 0 -11 5 -17 10 -14 6 3 10 2 10 -4 0 -5
-5 -13 -10 -16 -8 -5 -7 -11 1 -21 14 -17 -2 -19 -20 -1 -11 10 -12 8 -7 -9 4
-12 0 -34 -8 -49 -8 -16 -13 -32 -11 -36 11 -17 -28 -17 -57 1 -31 18 -54 18
-43 -1 4 -5 1 -9 -4 -9 -6 0 -11 5 -11 10 0 6 -4 10 -9 10 -4 0 -6 -12 -3 -26
3 -17 7 -22 12 -14 4 7 12 10 18 6 6 -3 13 0 15 6 3 8 6 6 6 -4 1 -10 -6 -18
-14 -18 -8 0 -15 -4 -15 -10 0 -5 6 -7 14 -4 20 8 68 -54 57 -73 -11 -21 -2
-60 10 -41 7 10 9 10 9 -2 0 -9 15 -24 33 -35 17 -10 38 -25 45 -32 8 -7 18
-11 23 -8 5 4 9 1 9 -5 0 -6 5 -8 10 -5 6 3 10 1 10 -5 0 -7 9 -9 23 -6 12 3
16 3 10 0 -7 -3 -13 -10 -13 -15 0 -6 8 -6 19 1 29 15 39 12 17 -5 -11 -8 -16
-15 -12 -15 5 0 2 -8 -5 -17 -13 -17 -12 -17 5 -3 32 25 52 20 20 -5 -16 -13
-24 -24 -17 -25 6 0 15 5 18 10 8 13 35 13 35 0 0 -5 -8 -7 -17 -3 -15 5 -16
3 -5 -8 17 -18 15 -36 -4 -43 -11 -4 -14 -1 -10 12 4 13 1 19 -9 19 -10 0 -14
-6 -10 -15 3 -10 0 -12 -10 -8 -9 3 -15 0 -15 -10 0 -8 -4 -12 -10 -9 -15 9
-12 -12 4 -28 8 -8 16 -23 18 -33 3 -19 16 -34 30 -34 4 0 5 7 2 15 -7 18 7
20 24 3 8 -8 15 -8 28 3 16 13 17 12 10 -6 -6 -16 -5 -18 5 -7 10 9 10 15 2
23 -13 13 -6 42 8 33 5 -3 9 -14 9 -25 0 -11 5 -17 10 -14 6 4 7 12 3 18 -4 6
-6 24 -5 39 2 19 -3 28 -18 33 -19 6 -25 22 -21 53 1 8 -3 20 -10 28 -6 8 -9
17 -5 21 3 4 12 0 19 -9 16 -21 41 -28 58 -17 11 7 9 9 -8 9 -26 0 -31 18 -9
26 8 3 12 12 10 19 -3 7 -1 16 5 20 6 3 11 15 11 26 0 10 7 19 15 19 8 0 14
-3 14 -7 -1 -5 -1 -15 0 -23 1 -13 2 -13 11 0 5 8 10 10 10 5 0 -6 -5 -16 -11
-22 -6 -6 -7 -22 -3 -38 5 -19 9 -23 15 -14 4 7 6 16 4 19 -2 3 5 6 15 6 19 0
19 -1 -1 -22 -12 -13 -16 -24 -11 -28 6 -3 13 0 15 6 4 9 6 10 6 1 2 -22 -18
-24 -39 -3 -11 11 -20 22 -20 25 0 3 -3 4 -7 3 -4 -2 -6 -13 -5 -25 4 -30 -8
-50 -19 -32 -7 11 -9 10 -9 -4 0 -10 7 -26 16 -35 15 -14 15 -17 -2 -29 -22
-16 -15 -24 28 -27 25 -2 34 -7 36 -24 2 -12 -1 -22 -7 -22 -6 0 -8 6 -5 14 3
9 -4 15 -20 18 -14 3 -23 1 -20 -3 3 -5 0 -9 -5 -9 -6 0 -11 -5 -11 -10 0 -7
6 -7 20 0 16 9 18 8 14 -5 -4 -8 -12 -15 -20 -15 -10 0 -13 -11 -9 -45 2 -25
0 -45 -5 -45 -6 0 -10 9 -10 20 0 11 -6 20 -12 20 -8 0 -5 7 6 15 11 8 15 15
9 15 -7 0 -15 -5 -18 -10 -4 -6 -11 -7 -17 -4 -6 4 -4 -3 4 -15 16 -22 14 -61
-3 -61 -5 0 -6 12 -3 26 5 19 4 25 -5 20 -6 -4 -11 -16 -11 -27 0 -10 -4 -19
-10 -19 -5 0 -10 -6 -10 -14 0 -10 -7 -12 -22 -8 -21 5 -22 4 -9 -11 12 -15
12 -17 -1 -12 -11 5 -14 -1 -13 -25 1 -16 5 -33 10 -38 4 -4 6 0 3 8 -3 9 6
20 20 28 28 14 45 7 22 -9 -12 -9 -13 -10 -1 -7 27 8 36 34 18 53 -19 18 -23
30 -7 20 5 -3 19 -1 31 5 18 10 19 10 10 -8 -7 -13 -7 -23 2 -32 7 -8 8 -11 1
-7 -7 4 -11 -3 -11 -18 0 -21 3 -24 22 -19 16 4 26 0 34 -13 10 -17 10 -17 12
2 1 11 3 25 4 30 2 6 3 15 4 20 2 15 31 -26 31 -44 0 -14 -2 -14 -10 -1 -5 8
-11 12 -14 10 -2 -3 2 -14 10 -24 8 -11 14 -14 14 -7 0 6 8 11 18 9 11 -2 17
4 18 17 2 36 4 40 15 22 5 -9 7 -22 4 -27 -3 -6 -2 -10 4 -10 16 0 24 20 12
33 -11 14 -4 57 10 57 5 0 7 -12 4 -27 -5 -25 -4 -26 4 -6 7 16 6 30 -4 50
-13 25 -13 28 0 31 8 2 13 7 11 11 -3 4 -1 13 5 21 6 11 9 9 9 -11 0 -34 30
-49 31 -16 1 21 1 21 9 -3 7 -22 8 -20 7 13 0 26 -3 34 -10 25 -6 -9 -7 -6 -4
10 6 26 -1 54 -12 48 -4 -3 -7 4 -8 14 -2 24 21 16 36 -13 11 -22 11 -21 7 3
-2 14 0 34 4 45 8 18 9 18 9 -5 1 -20 3 -22 11 -10 6 9 10 11 10 3 0 -7 7 -10
16 -6 14 5 15 3 4 -18 -10 -20 -10 -22 1 -11 7 6 16 12 21 12 10 0 5 -54 -7
-62 -6 -5 -5 -8 2 -8 8 0 10 -7 6 -17 -6 -15 -4 -16 9 -6 8 7 18 10 21 6 12
-11 8 -21 -11 -25 -24 -7 -30 -86 -7 -94 8 -4 15 -12 15 -20 0 -14 20 -20 20
-6 0 4 3 18 7 31 3 14 2 22 -3 19 -5 -4 -10 6 -10 20 -1 15 1 21 3 14 3 -6 9
-10 14 -6 5 3 9 -4 9 -15 0 -24 13 -33 34 -25 11 4 14 13 11 24 -3 10 0 22 6
26 7 4 9 3 5 -4 -3 -6 -2 -13 4 -17 6 -4 10 7 11 27 0 31 1 32 10 9 9 -23 10
-24 24 -5 8 10 15 27 15 36 0 9 7 24 16 32 8 9 11 16 5 16 -6 0 -11 5 -11 11
0 6 7 9 15 5 8 -3 15 -1 15 4 0 6 -7 10 -16 10 -8 0 -12 5 -9 11 4 6 14 8 22
5 12 -5 13 0 8 24 -4 18 -3 30 4 30 6 0 8 -7 5 -15 -4 -8 -1 -15 5 -15 6 0 13
11 17 25 6 24 24 35 24 15 0 -27 21 -5 31 33 18 61 28 67 16 8 -5 -28 -15 -52
-21 -53 -6 0 -17 -2 -25 -2 -8 -1 -16 -7 -19 -15 -3 -8 0 -11 6 -7 6 3 14 1
18 -5 5 -8 3 -9 -5 -5 -8 5 -11 3 -10 -5 1 -8 -3 -27 -10 -43 -6 -16 -10 -35
-7 -43 3 -7 1 -13 -3 -13 -5 0 -12 6 -14 13 -3 6 -5 -5 -4 -26 0 -23 -6 -45
-16 -55 -16 -15 -17 -15 -18 3 0 11 -3 15 -5 8 -3 -7 0 -21 6 -32 9 -18 8 -20
-7 -15 -14 4 -13 2 2 -8 20 -12 23 -48 5 -48 -5 0 -7 6 -4 14 3 7 -1 16 -8 19
-10 3 -14 -7 -14 -37 -1 -22 1 -33 5 -24 4 12 10 15 20 8 12 -7 12 -11 2 -24
-7 -9 -17 -13 -22 -10 -12 7 -11 -3 1 -26 7 -13 7 -21 0 -25 -5 -3 -10 -1 -10
4 0 6 -4 11 -10 11 -5 0 -10 -11 -10 -24 0 -14 -4 -28 -10 -31 -13 -8 -13 -65
-1 -65 5 0 12 6 14 13 3 6 6 -2 6 -20 1 -17 7 -34 14 -37 10 -5 10 -7 0 -12
-7 -3 -13 -15 -13 -27 0 -11 -8 -29 -17 -39 -13 -15 -14 -21 -5 -27 7 -4 10
-15 6 -24 -4 -11 -1 -17 7 -17 10 0 11 -2 2 -8 -7 -4 -14 -23 -18 -42 -3 -19
-8 -47 -11 -62 -3 -17 -1 -28 5 -28 6 0 11 6 11 14 0 8 5 16 11 18 5 2 11 18
11 36 1 34 18 57 18 25 0 -23 -36 -213 -45 -233 -8 -21 -52 -51 -73 -51 -9 0
-29 3 -44 6 -26 7 -26 6 -18 -26 4 -19 11 -43 16 -53 5 -14 4 -17 -4 -12 -16
10 -15 0 3 -27 9 -15 11 -27 5 -37 -8 -12 -10 -12 -10 4 0 11 -3 16 -7 12 -4
-4 -15 17 -24 46 -10 29 -18 47 -18 39 -1 -8 -4 -11 -8 -8 -7 8 -43 -21 -43
-35 0 -4 6 -8 14 -8 8 0 17 -7 20 -16 3 -8 2 -12 -4 -9 -6 3 -10 1 -10 -6 0
-7 -3 -10 -6 -7 -3 4 -5 9 -5 12 1 4 -11 18 -26 31 -20 18 -23 23 -9 18 13 -4
17 -3 12 5 -4 7 -12 12 -17 12 -5 0 -20 9 -31 20 -14 13 -24 16 -28 10 -4 -7
-11 -5 -20 5 -10 12 -10 15 1 15 10 0 10 3 1 12 -9 9 -15 8 -25 -5 -11 -16
-14 -15 -30 13 -10 16 -22 30 -27 30 -4 0 -17 3 -27 7 -16 6 -16 5 -4 -10 8
-10 11 -20 7 -24 -9 -10 -18 3 -20 31 -1 28 -31 52 -42 34 -4 -6 0 -16 8 -22
8 -6 18 -22 22 -36 6 -22 6 -23 -5 -6 -23 36 -51 58 -70 53 -10 -3 -19 -1 -19
4 0 5 -8 9 -18 9 -9 0 -25 12 -33 26 l-16 26 -7 -28 -7 -28 -19 41 c-10 22
-21 54 -25 72 -6 28 -9 30 -28 20 -12 -7 -42 -31 -65 -55 -24 -24 -52 -44 -62
-44 -10 0 -23 -6 -29 -14 -7 -8 -23 -17 -36 -20 -14 -4 -25 -10 -25 -15 0 -4
-14 -24 -32 -45 -20 -24 -37 -35 -47 -31 -8 3 -12 3 -8 -1 9 -9 -22 -44 -40
-44 -7 0 -13 8 -13 18 0 13 -2 14 -9 4 -6 -9 -19 -11 -44 -7 -27 5 -37 13 -42
32 -8 35 2 41 16 9 8 -16 15 -22 19 -16 4 6 13 12 21 13 8 2 20 6 28 11 8 5
16 3 22 -5 6 -10 9 -8 9 10 0 22 -1 23 -24 7 -14 -9 -27 -12 -30 -7 -4 5 -16
7 -28 3 -17 -4 -20 -2 -15 11 3 9 2 19 -3 22 -4 3 -10 -1 -13 -7 -2 -7 -8 -9
-13 -5 -4 4 -3 17 4 27 16 27 15 50 -3 50 -8 0 -15 8 -16 18 0 10 -7 4 -17
-17 -9 -19 -27 -46 -39 -59 -13 -14 -20 -28 -17 -33 3 -5 -2 -6 -10 -3 -9 3
-13 11 -9 17 3 6 1 7 -5 3 -20 -12 -13 -25 15 -32 l28 -7 -35 -13 c-19 -7 -29
-13 -22 -13 6 -1 12 -12 12 -26 0 -14 6 -28 14 -31 12 -4 12 -10 -1 -35 -18
-37 -12 -49 7 -14 l13 25 19 -43 c23 -49 23 -50 9 -55 -6 -2 -8 3 -5 12 3 9 1
16 -4 16 -6 0 -12 6 -15 13 -2 6 -2 2 0 -10 2 -13 -2 -23 -8 -23 -6 0 -3 -7 5
-16 15 -14 14 -19 -15 -55 -46 -58 -99 -79 -113 -43 -3 8 -10 13 -14 10 -5 -3
-9 0 -10 7 -9 67 -12 70 -77 88 -22 6 -48 18 -57 26 -9 8 -22 12 -29 7 -8 -4
-10 -3 -5 4 4 7 1 12 -8 12 -18 0 -21 -11 -6 -26 6 -6 2 -10 -13 -11 -12 0
-16 1 -10 4 10 3 8 9 -4 21 -15 16 -15 17 0 20 9 2 17 8 17 13 0 14 -17 11
-34 -6 -19 -20 -37 -19 -29 1 3 9 0 20 -8 24 -10 7 -8 11 11 19 18 7 20 10 8
10 -10 1 -21 1 -25 2 -5 0 -10 -10 -13 -23 -6 -22 -6 -22 -26 -3 -11 11 -30
25 -42 32 -20 12 -20 12 -4 -17 9 -15 19 -28 22 -27 14 4 60 -38 69 -64 5 -16
15 -29 22 -29 8 0 8 4 -1 15 -10 12 -10 18 0 30 10 13 15 13 21 3 5 -7 3 -16
-4 -20 -9 -6 -9 -8 1 -8 13 0 17 -26 5 -32 -5 -1 -24 -23 -43 -48 -55 -72
-102 -120 -111 -114 -17 10 -9 43 11 49 11 3 20 10 20 14 0 4 9 17 20 29 12
12 16 22 10 22 -5 0 -10 6 -10 14 0 8 -9 24 -19 37 -18 22 -20 23 -19 4 0 -11
-3 -29 -7 -39 -6 -14 -5 -17 3 -12 7 4 12 4 12 -1 -1 -12 -50 -45 -50 -33 0 5
5 10 11 10 5 0 7 5 3 12 -5 8 -12 2 -20 -17 -10 -25 -14 -27 -19 -13 -4 10 0
31 9 49 13 26 13 29 1 19 -12 -10 -15 -9 -15 6 -1 18 -2 18 -18 -2 -10 -11
-25 -20 -34 -18 -9 1 -26 -11 -38 -28 -28 -37 -39 -29 -12 9 13 18 18 38 15
55 -5 27 9 44 27 33 8 -5 8 -11 0 -20 -8 -9 -8 -15 0 -20 5 -3 10 -1 10 5 0 6
4 9 9 5 6 -3 13 10 17 30 l6 35 34 -37 33 -36 9 24 c10 26 5 52 -9 44 -4 -3
-6 -12 -2 -20 6 -18 -13 -20 -24 -3 -4 7 -13 31 -19 53 -11 39 -11 39 -18 13
-9 -31 -32 -43 -40 -21 -4 11 -2 14 9 9 12 -4 14 2 10 29 -4 34 8 48 19 23 3
-7 4 -4 3 7 -1 11 3 19 9 18 7 -1 10 6 7 17 -3 11 0 20 6 20 6 0 12 -12 12
-27 l1 -28 7 30 c6 28 7 29 19 10 6 -11 12 -15 12 -9 0 15 -25 36 -33 28 -3
-3 -11 3 -18 15 -10 15 -16 17 -26 9 -7 -6 -13 -17 -13 -24 0 -8 -6 -13 -12
-12 -8 2 -14 -9 -16 -25 -2 -16 -10 -31 -18 -34 -8 -3 -22 -17 -30 -32 -8 -14
-13 -17 -9 -7 5 17 -8 35 -27 36 -3 0 -16 -16 -28 -35 -19 -30 -24 -33 -41
-22 -10 6 -19 17 -19 23 0 7 -7 15 -16 18 -14 5 -15 4 -4 -9 10 -12 10 -15 -1
-15 -10 0 8 -17 38 -35 1 0 0 -11 -4 -23 -6 -26 -23 -20 -23 9 0 10 -4 19 -9
19 -4 0 -7 -12 -5 -27 2 -16 -4 -6 -14 22 -12 33 -15 54 -9 63 7 9 6 11 -6 6
-10 -4 -15 0 -13 10 3 19 16 34 16 18 0 -7 5 -12 12 -12 6 0 3 9 -7 20 -18 20
-18 20 -35 0 -15 -17 -19 -18 -24 -5 -3 8 -10 15 -17 15 -7 0 -8 -7 -4 -17 22
-56 56 -318 40 -301 -3 3 -12 47 -21 99 -8 51 -18 96 -22 99 -4 3 -7 19 -7 35
0 19 -5 29 -12 27 -7 -1 -13 2 -13 8 0 5 5 10 10 10 16 0 12 21 -7 43 -10 11
-12 17 -5 13 8 -5 12 0 12 14 0 11 -7 23 -15 26 -8 4 -15 10 -15 16 0 5 5 6
10 3 6 -3 10 -1 10 4 0 18 -38 12 -49 -6 -6 -10 -11 -13 -11 -6 0 6 5 15 10
18 6 4 8 11 4 16 -3 5 -10 7 -15 4 -5 -4 -9 2 -9 11 0 14 3 15 12 6 15 -15 48
-16 48 -1 0 5 -4 7 -10 4 -5 -3 -10 -1 -10 4 0 6 6 11 13 12 9 0 9 2 0 5 -8 4
-10 20 -7 47 4 32 1 44 -12 54 -10 7 -12 13 -6 13 7 0 12 7 12 16 0 9 -5 12
-12 8 -9 -5 -9 -2 1 9 7 9 9 17 3 17 -15 0 -23 43 -9 52 9 6 9 8 -1 8 -7 0
-12 7 -10 16 2 10 -3 19 -10 21 -9 4 -11 -2 -6 -21 3 -14 2 -26 -2 -26 -13 0
-41 20 -29 20 6 0 11 18 12 40 2 35 0 40 -18 40 -18 0 -19 2 -9 15 7 8 22 15
34 16 l21 0 -21 11 c-12 5 -27 21 -33 34 -6 13 -15 24 -21 24 -6 0 -8 5 -5 10
5 8 11 7 20 0 18 -15 36 -4 28 15 -3 9 -14 13 -28 11 -14 -3 -26 1 -29 9 -6
17 10 30 19 15 8 -13 25 -13 25 1 0 5 -5 7 -12 3 -7 -4 -8 -3 -4 4 4 7 15 12
24 13 12 0 10 3 -7 10 -16 6 -21 14 -17 25 5 13 1 15 -19 10 -15 -4 -25 -2
-25 4 0 6 4 9 8 6 5 -3 14 4 22 14 8 10 17 17 22 14 4 -3 8 3 8 12 0 10 -3 14
-7 11 -3 -4 -12 -2 -20 4 -11 10 -10 14 4 25 14 11 14 14 3 12 -9 -2 -15 5
-15 17 -1 11 -7 19 -14 17 -7 -1 -10 2 -6 8 5 8 11 8 21 -1 7 -6 11 -15 8 -20
-3 -5 0 -9 6 -9 7 0 9 7 6 16 -4 9 -11 48 -16 87 -6 38 -13 74 -16 79 -3 5 -7
30 -9 56 -1 26 -5 54 -8 62 -10 27 -28 123 -23 127 5 6 13 -21 21 -77 4 -25
10 -49 13 -54 3 -6 6 -19 7 -30 7 -81 74 -400 86 -404 5 -2 6 -8 3 -14 -3 -5
-3 -25 0 -43 5 -25 11 -33 22 -28 12 4 12 8 4 13 -7 5 -9 13 -5 20 5 9 4 11
-3 6 -7 -4 -12 -2 -12 3 0 6 8 11 18 12 10 0 12 3 5 6 -7 2 -13 16 -13 29 0
17 6 24 20 24 11 0 20 -4 20 -10 0 -5 -8 -7 -17 -4 -11 4 -14 3 -6 -3 6 -4 13
-17 15 -28 4 -24 17 -35 41 -35 20 0 22 13 4 32 -7 7 -22 28 -32 45 -13 23
-21 29 -27 20 -6 -9 -8 -8 -8 3 0 26 14 38 35 29 11 -4 16 -8 12 -8 -5 -1 -5
-7 0 -13 8 -14 10 -19 12 -42 0 -7 10 -16 20 -19 12 -3 19 -12 17 -23 -2 -11
-1 -13 1 -6 3 7 9 10 14 7 13 -9 11 2 -7 41 -9 19 -23 34 -31 34 -8 0 -11 5
-8 11 4 6 13 8 19 6 27 -11 40 12 41 70 0 32 4 64 8 71 5 8 2 12 -8 12 -11 0
-15 5 -11 15 8 21 -3 45 -21 45 -13 0 -13 2 -2 17 12 14 12 15 0 9 -8 -5 -17
-3 -22 5 -12 19 -11 32 1 24 6 -3 10 -2 10 4 0 5 -9 9 -19 8 -11 0 -17 -5 -15
-9 3 -4 0 -8 -5 -8 -6 0 -11 7 -11 15 0 8 -4 15 -10 15 -5 0 -10 7 -10 15 0 8
4 15 9 15 5 0 8 11 7 24 -1 18 -4 22 -13 14 -9 -7 -13 -7 -13 1 0 6 -3 10 -7
8 -9 -2 -13 6 -13 24 0 8 5 8 15 -1 8 -7 15 -8 15 -4 0 5 -9 15 -21 22 -12 8
-18 9 -15 4 3 -6 -1 -13 -10 -16 -11 -4 -15 -2 -11 8 3 7 1 18 -5 24 -8 8 -3
10 18 6 19 -3 24 -1 15 5 -15 10 -3 20 21 16 10 -2 15 2 11 10 -2 8 -11 11
-19 8 -8 -3 -14 0 -14 6 0 6 5 11 10 11 6 0 10 8 10 18 0 10 -3 13 -8 6 -9
-14 -72 -26 -72 -14 0 6 13 10 29 10 30 0 46 21 29 38 -6 6 -5 19 5 37 10 21
16 24 22 15 5 -9 4 -15 -3 -18 -16 -5 -15 -20 2 -38 8 -8 13 -24 11 -35 -3
-12 -1 -19 2 -15 11 10 13 39 4 51 -8 10 -7 43 2 52 3 2 15 0 26 -7 15 -7 21
-21 21 -42 0 -33 -15 -29 -22 6 -1 11 -9 21 -16 24 -15 5 -6 -25 16 -50 19
-23 32 -14 32 22 0 16 5 32 12 36 7 4 8 3 4 -5 -4 -6 -3 -17 2 -24 18 -21 17
-26 -2 -40 -13 -10 -15 -16 -8 -21 17 -11 15 -29 -3 -22 -8 3 -15 1 -15 -5 0
-6 -4 -7 -10 -4 -6 3 -7 -1 -4 -9 9 -22 31 -20 44 5 8 15 8 24 0 33 -8 10 -7
15 4 19 8 3 16 4 19 1 7 -8 -15 -98 -26 -106 -5 -3 1 -5 15 -5 22 2 24 5 16
21 -7 12 -6 22 1 29 10 10 16 -1 12 -25 0 -5 3 -8 8 -8 5 0 8 11 7 24 0 13 -4
22 -8 19 -11 -6 -10 5 4 30 9 19 9 20 -3 10 -12 -9 -14 -4 -14 33 0 25 5 46
11 48 16 6 28 -25 13 -34 -15 -10 -13 -22 5 -32 9 -5 13 -14 9 -21 -9 -15 -10
-57 -1 -57 4 0 5 -8 1 -17 -4 -13 -3 -15 5 -8 8 8 9 21 3 43 -7 22 -6 32 1 32
7 0 9 16 5 45 -4 30 -3 45 4 45 6 0 9 -6 6 -13 -3 -8 1 -14 9 -14 7 0 11 4 9
8 -8 12 5 37 22 43 13 5 14 4 3 -9 -9 -11 -9 -15 -1 -15 7 0 5 -9 -6 -24 -10
-13 -21 -22 -25 -20 -3 2 -4 -5 -1 -16 7 -26 22 -35 36 -21 8 8 6 11 -6 11
-17 0 -17 1 0 24 12 15 22 21 29 15 6 -5 15 -5 19 -1 5 4 5 2 1 -5 -4 -7 -13
-10 -20 -7 -8 3 -17 1 -20 -5 -4 -6 6 -8 26 -5 l32 4 -29 -28 c-16 -15 -33
-26 -37 -25 -5 2 -8 -2 -8 -7 0 -6 4 -10 9 -10 15 0 22 -32 11 -46 -6 -7 -21
-11 -32 -9 -17 4 -19 2 -10 -7 10 -10 17 -10 32 0 17 11 20 10 20 -8 0 -11 5
-20 10 -20 12 0 13 16 1 58 -8 26 -7 34 8 42 12 6 22 5 31 -3 10 -9 14 -9 17
1 3 6 9 10 14 7 5 -4 6 1 3 9 -4 11 0 16 10 16 9 0 16 5 16 11 0 7 -8 6 -22
-3 -13 -8 -36 -17 -51 -20 l-28 -5 22 23 c12 13 19 24 14 24 -5 0 -4 5 3 12 9
9 15 9 24 0 10 -10 15 -7 26 10 8 13 11 15 8 6 -3 -10 -1 -18 4 -18 6 0 10
-12 10 -26 0 -14 4 -23 10 -19 6 3 10 1 10 -4 0 -6 -5 -11 -11 -11 -5 0 -7 -4
-4 -10 3 -5 2 -10 -4 -10 -5 0 -11 3 -14 8 -2 4 -3 2 -1 -4 3 -14 -33 -36 -40
-25 -3 5 -14 11 -24 13 -13 4 -18 -1 -20 -18 -1 -13 3 -24 9 -24 6 0 9 7 5 15
-3 9 0 15 9 15 8 0 15 -4 15 -10 0 -5 9 -10 21 -10 11 0 17 -4 14 -10 -3 -6 1
-7 10 -4 14 6 14 8 -2 20 -15 11 -15 14 -3 15 8 1 18 1 23 0 4 0 7 4 7 9 0 6
6 10 14 10 10 0 13 9 11 28 -3 23 1 28 18 29 17 2 19 0 7 -7 -13 -9 -13 -11 0
-20 11 -7 20 -4 32 11 10 12 16 25 13 30 -3 4 3 17 15 29 11 11 20 16 20 12 0
-4 -5 -13 -12 -20 -7 -7 -8 -12 -4 -12 5 0 3 -6 -3 -14 -9 -11 -8 -15 5 -20 9
-4 19 -4 22 -1 3 3 0 5 -7 5 -7 0 -9 5 -6 10 4 6 11 8 16 5 12 -8 12 -45 -1
-45 -5 0 -10 -6 -10 -12 1 -7 9 -3 19 9 18 21 18 21 34 2 19 -22 43 -25 50 -6
3 8 10 7 23 -7 11 -10 14 -16 9 -13 -15 8 -11 -41 5 -56 10 -10 12 -7 8 16 -3
15 -3 27 0 27 8 0 31 -34 32 -47 0 -15 -37 -27 -53 -16 -7 4 -4 0 8 -9 11 -10
28 -25 37 -34 16 -15 17 -14 13 15 -3 22 0 31 10 31 8 0 15 6 15 13 0 8 4 7
10 -3 8 -13 10 -12 10 3 0 19 20 24 20 5 0 -10 2 -10 9 0 6 10 10 5 14 -17 5
-25 11 -30 35 -29 18 1 34 9 41 21 12 18 11 19 -8 14 -12 -3 -21 -2 -21 3 0
13 36 18 54 8 18 -10 36 -3 36 15 0 7 -4 6 -10 -3 -9 -13 -11 -13 -20 0 -13
20 -13 50 1 50 5 0 8 -4 5 -9 -3 -5 2 -12 11 -15 9 -4 20 -1 24 5 4 6 12 8 19
4 8 -5 19 -1 28 11 13 18 14 18 7 -5 -5 -16 -4 -21 4 -17 6 4 11 18 11 32 l0
25 23 -26 c19 -23 23 -24 23 -9 1 11 5 28 9 38 6 13 5 17 -3 12 -6 -3 -14 -1
-18 5 -4 8 -3 9 4 5 7 -4 12 -2 12 4 0 7 7 10 15 6 8 -3 15 -1 15 4 0 6 5 10
11 10 6 0 9 -7 5 -15 -3 -8 1 -18 8 -22 7 -5 18 -17 24 -28 10 -18 11 -18 12
10 1 17 4 39 6 50 3 11 6 27 6 35 1 8 6 18 11 22 12 7 51 -27 44 -39 -3 -5 8
-10 24 -11 16 -1 29 3 29 8 0 6 -6 8 -12 4 -9 -5 -9 -2 1 9 15 18 26 23 16 7
-3 -5 -1 -10 6 -10 6 0 9 -8 6 -20 -3 -10 0 -21 7 -24 7 -3 8 -7 1 -13 -12 -9
-13 -38 -2 -49 4 -4 7 2 7 14 0 12 5 22 11 22 5 0 7 6 3 13 -6 8 -3 8 9 -1 9
-8 16 -17 16 -20 -1 -4 2 -18 6 -30 6 -20 13 -23 34 -17 14 3 32 6 39 7 15 2
16 24 1 33 -6 4 -8 13 -5 21 3 7 1 16 -5 19 -5 4 -7 11 -4 16 6 8 -11 13 -42
12 -7 -1 -13 5 -13 11 0 7 6 18 13 25 10 11 10 13 0 7 -8 -5 -13 -1 -13 9 0 9
-4 13 -10 10 -5 -3 -10 1 -10 9 0 8 -5 18 -12 22 -8 5 -9 2 -4 -11 5 -15 4
-16 -9 -5 -14 12 -13 15 6 36 12 13 30 26 39 29 12 4 15 14 12 40 -2 19 -8 35
-13 35 -5 0 -9 9 -9 19 0 11 -7 26 -15 35 -14 13 -13 17 7 36 13 11 24 16 26
10 2 -5 10 -10 18 -10 8 0 14 -9 14 -20 0 -27 -16 -25 -24 2 -3 15 -9 19 -15
13 -13 -13 -3 -57 11 -49 5 3 16 0 25 -8 9 -7 14 -8 10 -2 -4 7 0 14 8 18 22
8 18 31 -9 51 -18 14 -22 23 -16 35 5 9 4 23 -1 33 -6 9 -7 17 -3 17 4 0 -6
10 -22 23 -16 12 -32 21 -37 19 -4 -1 -3 7 3 18 6 11 16 20 23 20 7 0 6 -4 -3
-10z m-733 -91 c-13 -8 -15 -15 -8 -28 5 -9 6 -23 2 -30 -11 -17 -2 -53 11
-45 6 4 8 -2 3 -15 -4 -12 -2 -21 4 -21 6 0 11 -7 11 -16 0 -8 -4 -12 -10 -9
-5 3 -10 1 -10 -4 0 -6 7 -11 15 -11 10 0 15 10 16 28 0 27 0 27 11 4 8 -17 8
-26 0 -34 -8 -8 -7 -15 6 -24 15 -12 15 -13 -7 -9 -12 2 -29 9 -37 16 -16 13
-16 13 -19 -18 -1 -13 2 -23 6 -23 5 0 9 -7 9 -15 0 -12 4 -14 19 -5 16 8 22
6 30 -7 10 -17 10 -17 11 0 0 10 -14 24 -35 34 -19 9 -35 20 -35 25 0 5 11 1
25 -8 16 -11 36 -14 55 -11 24 5 28 4 23 -11 -12 -32 -35 -62 -44 -56 -5 3 -6
-2 -3 -10 4 -11 0 -16 -10 -16 -9 0 -16 -6 -17 -12 0 -7 -4 -3 -9 10 -5 12
-14 22 -20 22 -5 0 -10 8 -10 19 0 26 -23 44 -38 29 -9 -9 -12 -9 -12 0 0 11
13 16 33 13 4 0 7 4 7 9 0 6 -5 10 -11 10 -6 0 -4 7 4 15 9 8 13 24 10 36 -4
15 -2 20 5 15 8 -5 10 -2 6 9 -6 14 -8 14 -19 -2 -7 -9 -12 -22 -11 -28 2 -5
1 -7 -1 -3 -2 4 -11 4 -20 1 -11 -4 -14 -2 -9 5 7 12 -33 59 -46 55 -5 -2 -8
2 -8 8 0 5 -3 8 -7 6 -5 -3 -9 7 -10 21 l-1 27 19 -24 c11 -13 22 -21 25 -18
4 3 -1 13 -10 22 -20 21 -21 32 -1 15 10 -8 15 -9 15 -2 0 6 7 9 16 5 12 -4
14 0 8 22 -5 20 -4 26 5 21 6 -4 11 -23 11 -42 0 -21 4 -33 10 -29 6 3 10 1
10 -4 0 -6 4 -11 9 -11 5 0 7 9 4 21 -4 12 0 25 8 30 10 6 10 9 2 9 -7 0 -13
5 -13 12 0 15 32 50 39 42 3 -3 -2 -10 -12 -15z m-659 -206 c-2 -10 3 -17 10
-15 6 1 11 -3 10 -9 -2 -6 2 -13 9 -16 7 -2 11 4 10 16 -1 12 -6 21 -11 21 -5
0 -7 2 -4 5 3 3 16 1 29 -4 13 -5 19 -10 12 -10 -6 -1 -9 -10 -6 -21 4 -15 9
-18 18 -10 8 7 12 5 12 -5 0 -7 -5 -13 -10 -12 -5 1 -12 -4 -14 -10 -6 -16 23
-17 32 -2 4 6 14 8 22 5 8 -3 12 -2 9 3 -3 5 1 11 9 15 8 3 12 12 9 21 -8 19
-1 19 37 0 16 -9 27 -20 24 -25 -3 -5 5 -11 17 -15 61 -18 60 -18 54 2 -3 10
-1 25 5 33 8 12 9 10 4 -7 -4 -13 -2 -23 4 -23 18 0 2 -24 -24 -37 -14 -6 -23
-7 -19 -2 3 5 0 9 -7 9 -7 0 -21 8 -31 17 -14 13 -21 14 -30 5 -9 -9 -9 -12 0
-12 7 0 12 -5 12 -11 0 -5 -4 -8 -9 -5 -5 4 -7 -3 -4 -14 3 -13 0 -20 -8 -20
-11 0 -11 -2 1 -10 8 -5 11 -12 7 -17 -13 -12 -25 16 -22 50 3 32 3 32 -12 10
-20 -30 -33 -29 -33 3 0 15 -4 23 -11 19 -6 -4 -8 -13 -6 -19 4 -11 -22 -14
-43 -6 -3 1 -8 2 -12 1 -5 0 -8 4 -8 9 0 6 6 10 13 11 8 0 8 2 -2 6 -11 5 -11
7 0 15 11 7 9 8 -5 6 -13 -2 -20 -12 -20 -30 -1 -16 2 -28 7 -28 4 0 1 -10 -7
-22 -12 -17 -13 -25 -3 -37 7 -8 -2 -5 -19 7 -17 12 -34 18 -38 14 -4 -4 -7
-2 -6 3 5 21 -1 29 -10 15 -8 -12 -10 -11 -10 8 0 12 6 22 13 22 8 0 7 4 -3
11 -13 9 -13 10 0 6 8 -2 15 -12 15 -22 0 -20 40 -32 50 -15 3 6 -1 7 -9 4 -9
-3 -16 -1 -16 5 0 6 6 11 13 11 18 0 19 66 1 81 -16 13 -19 39 -4 39 6 0 10
-8 8 -17z m2807 -386 c19 -87 53 -134 191 -259 73 -67 134 -126 134 -131 0
-15 -22 -51 -60 -97 -69 -84 -73 -107 -36 -191 49 -110 51 -105 -69 -209 -58
-51 -130 -123 -160 -160 -55 -69 -111 -117 -122 -106 -4 3 1 75 11 159 10 83
19 222 20 307 2 85 8 189 14 230 21 142 52 415 52 458 0 49 15 48 25 -1z
m-3015 -712 c0 -25 -38 -192 -105 -460 -29 -115 -61 -257 -70 -315 -9 -57 -18
-106 -21 -109 -8 -8 -4 152 6 243 19 173 32 242 86 466 30 124 58 236 61 250
5 24 6 23 24 -15 10 -22 19 -49 19 -60z m3943 -432 c-9 -25 -38 -52 -113 -105
-36 -25 -105 -78 -155 -118 -94 -76 -240 -152 -311 -163 -38 -6 -38 -6 11 13
28 11 58 23 68 26 28 10 19 24 -13 20 -46 -5 -40 -1 50 38 37 16 59 33 52 41
-4 5 -2 5 4 2 7 -4 17 0 24 8 7 8 18 15 26 15 7 0 18 9 24 21 7 12 18 18 26
15 8 -3 13 -2 10 3 -7 10 42 33 55 26 5 -3 6 0 3 8 -3 8 0 18 7 23 8 4 10 3 5
-4 -4 -7 -3 -12 3 -12 5 0 13 5 16 10 3 6 11 10 16 10 6 0 7 -6 3 -12 -5 -8
-1 -7 10 2 11 8 14 16 7 18 -6 2 -11 8 -11 13 0 6 4 7 10 4 16 -10 60 26 60
49 1 20 1 20 15 -4 8 -14 15 -23 15 -20 7 31 7 40 -3 40 -5 0 -7 3 -4 6 4 4
14 1 23 -7 13 -11 18 -11 21 -1 3 6 11 12 19 12 8 0 13 3 13 8 -3 18 2 32 11
32 5 0 6 -8 3 -17z m-2796 -727 c5 -5 -4 -6 -19 -2 -16 3 -28 2 -28 -3 0 -5
-12 -14 -27 -19 -16 -6 -22 -11 -15 -11 25 -2 11 -21 -15 -21 -21 0 -24 -3
-13 -10 12 -8 12 -10 -4 -16 -11 -4 -21 -2 -26 6 -5 7 -10 8 -14 2 -3 -5 2
-13 11 -16 14 -6 15 -9 3 -16 -20 -13 -26 -47 -15 -90 6 -22 5 -23 -5 -7 -11
18 -12 18 -27 0 -8 -10 -12 -12 -8 -5 7 14 -21 17 -30 2 -3 -5 -11 -10 -17
-10 -6 0 -3 9 7 20 10 12 24 19 31 16 7 -3 15 3 19 12 3 9 1 18 -4 20 -6 2
-11 10 -11 18 0 11 -9 14 -37 10 -47 -6 -73 -15 -73 -27 0 -5 -6 -9 -12 -9 -7
0 -22 -8 -33 -16 -20 -16 -20 -16 3 -9 12 3 22 2 22 -3 0 -15 -22 -29 -60 -37
-19 -4 -41 -12 -47 -17 -12 -10 -18 0 -15 23 1 4 -6 6 -15 5 -9 0 -18 5 -21
13 -3 9 0 11 7 6 8 -5 11 -1 9 11 -2 13 2 18 14 16 9 -1 19 2 23 8 3 5 15 10
26 10 10 0 19 5 19 11 0 5 5 7 12 3 8 -5 9 -2 5 9 -3 9 -1 19 5 23 7 5 8 3 4
-5 -13 -20 134 -11 154 9 9 9 23 15 31 12 10 -3 11 -1 1 5 -19 14 23 53 56 53
15 0 41 9 57 19 30 19 58 22 72 7z m172 -71 c2 -13 -1 -16 -13 -12 -9 4 -16 2
-16 -3 0 -6 6 -10 14 -10 8 0 24 -9 37 -21 13 -11 18 -18 12 -14 -7 3 -13 1
-13 -4 0 -6 7 -11 15 -11 8 0 15 -5 15 -11 0 -5 -4 -7 -10 -4 -16 10 -12 -17
5 -35 9 -10 13 -24 10 -32 -8 -19 -37 -19 -53 1 -12 14 -13 12 -9 -11 2 -16 0
-28 -4 -28 -5 0 -9 5 -9 11 0 18 -34 54 -50 54 -12 0 -14 11 -12 55 3 56 14
80 38 80 8 0 14 5 14 11 0 17 25 4 29 -16z m-1519 -395 c8 -6 28 -15 44 -20
21 -8 26 -15 21 -28 -4 -9 -14 -46 -22 -82 -35 -141 -104 -385 -113 -394 -6
-6 -7 67 -2 190 4 109 6 238 5 287 l-2 87 27 -15 c15 -8 34 -20 42 -25z m2710
9 l-25 -20 24 7 c20 5 23 3 18 -10 -4 -10 -3 -15 3 -11 13 8 13 0 1 -23 -5 -9
-16 -32 -23 -49 -8 -22 -24 -38 -48 -47 -32 -13 -37 -13 -54 4 -33 32 -9 77
84 152 19 15 36 25 39 22 3 -3 -5 -14 -19 -25z m140 -147 c0 -18 -23 -42 -61
-63 -13 -6 -32 -20 -43 -30 -11 -11 -26 -19 -34 -19 -8 0 -26 -9 -42 -20 -15
-11 -29 -17 -32 -15 -2 3 -28 -4 -56 -15 -29 -11 -63 -20 -77 -20 -14 0 -25
-5 -25 -10 0 -7 -6 -7 -20 0 -11 6 -20 7 -20 2 0 -8 -152 -34 -192 -34 -10 1
-18 -4 -18 -11 0 -7 -3 -8 -10 -1 -7 7 -37 6 -93 -2 -45 -6 -111 -15 -147 -18
-35 -4 -68 -12 -72 -19 -6 -9 -8 -8 -8 3 0 9 -3 11 -8 5 -10 -14 -54 -12 -59
3 -3 7 6 12 24 13 15 1 33 2 38 4 6 1 16 3 23 3 7 1 10 7 7 12 -3 6 -1 11 4
11 26 3 30 4 36 11 9 9 35 -2 35 -14 0 -7 -5 -6 -14 1 -10 9 -15 8 -19 -2 -4
-11 3 -13 31 -10 21 2 49 4 64 4 15 0 30 4 33 9 3 5 -4 7 -15 5 -22 -4 -25 2
-10 25 8 13 10 12 10 -3 0 -10 4 -16 9 -12 5 3 12 1 16 -5 3 -5 20 -8 38 -6
18 3 37 5 44 5 7 1 10 9 7 19 -5 16 -5 16 9 0 17 -22 28 -23 21 -3 -4 8 -1 15
5 15 6 0 11 -4 11 -10 0 -5 5 -10 11 -10 5 0 7 5 4 10 -8 13 1 13 27 -1 16 -9
19 -8 13 3 -6 10 -5 10 4 2 13 -12 64 -7 56 6 -2 4 2 16 9 26 13 17 14 16 10
-11 -4 -30 -4 -30 7 -5 10 21 13 22 16 8 4 -17 24 -26 22 -10 -6 33 10 41 34
17 14 -13 17 -11 29 15 16 36 38 47 38 19 0 -12 4 -17 11 -13 6 3 15 0 20 -7
6 -10 9 -8 9 9 0 13 -6 22 -15 22 -8 0 -15 6 -15 14 0 9 -8 12 -26 8 -16 -3
-29 1 -34 9 -7 11 -13 10 -29 -5 -16 -15 -21 -16 -21 -5 0 11 -2 11 -10 -1 -8
-12 -10 -11 -10 8 0 14 6 22 16 22 11 0 14 6 10 18 -6 16 -5 16 7 0 7 -9 22
-16 33 -15 11 1 18 -3 16 -11 -1 -8 2 -11 8 -7 6 3 8 10 5 15 -3 4 1 12 8 18
16 12 68 22 61 11 -3 -5 -1 -9 5 -9 5 0 15 8 20 18 6 9 11 12 11 5 0 -6 -5
-15 -10 -18 -8 -5 -8 -11 0 -20 14 -17 -21 -40 -37 -24 -6 6 -10 5 -10 -5 0
-8 3 -14 6 -14 3 1 14 -2 25 -7 11 -5 21 -3 26 5 4 7 15 10 24 7 9 -4 15 -3
13 1 -1 4 3 7 8 7 6 0 9 -4 7 -8 -1 -4 7 -3 18 3 11 6 26 8 32 4 6 -4 8 -3 4
4 -3 6 -2 13 4 17 5 3 10 1 10 -6 0 -18 11 -4 14 17 2 10 9 20 17 22 11 3 11
1 -1 -7 -8 -6 -10 -11 -5 -11 6 0 28 16 50 35 46 39 55 42 55 17z m-3085 -933
c-38 -106 -85 -344 -85 -431 0 -35 -15 -17 -31 36 -14 49 -14 58 2 117 10 35
16 72 13 81 -3 10 19 69 51 134 56 117 79 145 50 63z"/>
<path d="M3438 3186 c-22 -30 -35 -91 -17 -81 8 5 11 4 6 0 -4 -5 -17 -10 -28
-12 -19 -3 -19 -2 -5 19 9 12 16 27 16 33 0 5 -9 -5 -20 -23 -11 -18 -20 -39
-20 -47 0 -8 -6 -15 -13 -15 -7 0 -18 -20 -25 -45 -13 -51 -23 -55 -48 -22
-14 19 -16 19 -9 2 4 -11 8 -29 11 -39 2 -11 11 -27 19 -35 15 -15 16 -14 10
0 -4 10 0 19 10 23 11 4 14 13 10 25 -3 11 -1 22 4 26 7 4 8 -1 5 -12 -4 -14
-1 -13 13 5 14 17 21 20 31 10 9 -9 11 -7 8 8 -2 11 2 27 9 37 11 15 13 15 18
3 4 -9 2 -18 -3 -21 -5 -3 -8 -19 -6 -35 2 -16 -1 -27 -5 -24 -15 9 -10 -8 9
-29 9 -11 12 -17 6 -14 -7 4 -15 0 -18 -9 -5 -13 -9 -14 -21 -4 -11 9 -12 17
-4 32 6 10 8 24 5 31 -3 9 -5 8 -5 -1 -1 -7 -5 -11 -10 -8 -5 4 -7 -4 -3 -16
3 -14 2 -19 -6 -14 -19 12 -14 1 14 -29 24 -26 26 -27 39 -9 13 17 16 17 25 4
9 -13 11 -13 19 -1 6 9 4 22 -5 36 -8 12 -12 30 -8 39 3 9 1 16 -5 16 -6 0
-11 7 -11 15 0 8 5 15 10 15 6 0 10 -7 10 -15 0 -9 9 -15 24 -15 13 0 26 -6
29 -12 3 -10 7 -10 19 -1 10 9 18 9 25 2 7 -7 12 -5 17 6 5 14 1 17 -24 13
-24 -4 -34 0 -43 16 -18 33 -19 56 -2 50 8 -4 15 -10 15 -15 0 -5 5 -9 12 -9
6 0 4 7 -5 18 -10 10 -17 32 -17 48 0 22 -3 25 -10 14 -14 -22 -22 -6 -11 24
7 18 7 26 0 26 -6 0 -8 3 -6 8 3 4 0 12 -7 18 -9 8 -16 5 -28 -10z"/>
<path d="M6390 4244 c0 -16 32 -107 42 -121 5 -7 7 -21 3 -32 -5 -16 -3 -19 8
-15 8 3 18 0 23 -7 4 -7 3 -10 -4 -5 -6 3 -13 2 -17 -4 -3 -5 -1 -10 5 -10 6
0 8 -4 5 -10 -3 -5 1 -10 10 -10 10 0 13 5 9 12 -4 6 -3 8 3 5 6 -4 13 -16 16
-28 4 -16 3 -19 -6 -10 -6 6 -17 11 -25 11 -7 0 1 -12 18 -26 17 -15 28 -29
26 -32 -3 -3 -1 -11 5 -18 6 -8 9 -20 6 -27 -3 -7 3 -13 13 -13 11 0 16 6 14
16 -3 8 1 5 7 -7 7 -13 16 -23 21 -23 4 0 8 -5 8 -12 0 -9 -3 -9 -12 0 -14 14
-38 16 -38 2 0 -5 8 -6 17 -3 13 5 15 2 10 -12 -4 -9 -2 -24 4 -31 9 -11 8
-14 -1 -14 -8 0 -11 -3 -7 -6 3 -3 11 -3 17 1 8 5 8 11 -1 21 -6 8 -9 18 -5
21 4 4 11 1 16 -7 7 -11 10 -12 10 -2 0 7 4 11 9 7 5 -3 2 13 -6 35 -9 22 -20
37 -24 34 -5 -3 -10 1 -10 8 -3 37 -28 98 -40 98 -5 0 -9 6 -9 14 0 7 -10 21
-22 30 -13 9 -17 14 -10 11 21 -10 13 15 -13 41 -13 13 -25 28 -26 32 -5 23
-49 101 -49 86z"/>
<path d="M5233 2041 c-9 -11 -21 -18 -25 -14 -13 7 -39 -29 -33 -45 3 -7 0
-10 -5 -7 -13 8 -41 -57 -47 -106 -3 -21 0 -40 6 -44 6 -3 11 -16 11 -28 0
-20 2 -20 25 8 13 17 25 26 25 20 0 -5 4 -4 9 4 5 8 5 26 -1 42 -8 22 -6 32 6
45 9 8 17 13 17 10 1 -3 3 -10 4 -16 1 -5 3 -21 4 -35 2 -44 17 -27 19 23 4
79 5 87 16 94 7 5 4 8 -6 8 -9 0 -20 4 -23 10 -3 5 0 7 7 5 10 -4 14 3 14 20
0 30 -1 30 -23 6z"/>
</g>
</svg>
